<?xml version="1.0" encoding="UTF-8"?><svg id="Camada_2" xmlns="http://www.w3.org/2000/svg" xmlns:xlink="http://www.w3.org/1999/xlink" viewBox="0 0 651.59 170.48"><defs><style>.cls-1{fill:#171717;}.cls-2{clip-path:url(#clippath);}.cls-3{fill:none;}</style><clipPath id="clippath"><rect class="cls-3" width="651.59" height="170.48"/></clipPath></defs><g id="Layer_1"><g class="cls-2"><path class="cls-1" d="M243.92,97.6v38.67h-15.37l-1.32-11.9c-5.62,8.76-15.37,13.55-25.45,13.55-20.82,0-37.18-16.52-37.18-40.32s17.19-40.48,39.82-40.48,39.49,14.87,39.49,40.48m-17.19,0c0-15.7-10.41-24.95-22.31-24.95-12.56,0-22.47,10.08-22.47,24.95s9.42,24.79,22.47,24.79c11.24,0,22.31-8.76,22.31-24.79"/><rect class="cls-1" x="252.28" y="32.44" width="17.35" height="103.83"/><path class="cls-1" d="M317.65,73.31h-22.8v33.05c0,11.57,4.63,15.53,16.53,15.53,1.32,0,2.48,0,5.78-.16v14.38c-3.64,.83-6.94,1.32-10.74,1.32-16.53,0-29.08-10.08-29.08-29.08V45.07h17.52v13.7h22.8v14.54Z"/><path class="cls-1" d="M314.93,97.6c0-22.8,17.19-40.48,40.48-40.48s40.65,17.68,40.65,40.48-17.19,40.32-40.65,40.32-40.48-17.52-40.48-40.32m63.79,0c0-14.54-9.92-24.95-23.3-24.95s-23.13,10.41-23.13,24.95,9.75,24.79,23.13,24.79,23.3-10.41,23.3-24.79"/><path class="cls-1" d="M484.24,58.77h15.2v73.54c0,27.43-19.66,38.17-38.34,38.17-21.81,0-36.19-10.58-39.16-28.92h17.68c2.32,8.43,10.08,13.55,21.48,13.55s21.15-6.61,21.15-22.8v-7.77c-5.62,8.26-15.2,12.89-25.94,12.89-18.84,0-36.69-14.21-36.69-40.15s17.85-40.16,36.69-40.16c11.07,0,20.99,4.79,26.44,13.72l1.49-12.06Zm-1.65,38.5c0-15.7-11.24-24.62-22.64-24.62-12.39,0-23.14,9.25-23.14,24.62s10.74,24.62,23.14,24.62c11.4,0,22.64-8.92,22.64-24.62"/><rect class="cls-1" x="507.8" y="58.77" width="17.35" height="77.5"/><path class="cls-1" d="M532.84,136.27v-47.59c0-19.17,11.57-31.56,30.24-31.56,3.47,0,6.28,.5,9.25,1.16v15.86c-2.52-.18-4.79-.17-5.95-.17-10.24,0-16.19,4.63-16.19,17.68v44.62h-17.35Z"/><path class="cls-1" d="M570.45,97.61c0-22.8,17.19-40.49,40.48-40.49s40.65,17.68,40.65,40.49-17.19,40.32-40.65,40.32-40.48-17.52-40.48-40.32m63.79,0c0-14.54-9.92-24.95-23.3-24.95s-23.13,10.41-23.13,24.95,9.75,24.79,23.13,24.79,23.3-10.41,23.3-24.79"/><path class="cls-1" d="M72.43,88c-10.93-1.71-23.47-3.1-23.47-3.1v53.02l24.12-1.31c36.01-2.78,51.44-7.33,51.44-18.34,0-11.65-17.79-24.88-52.09-30.26"/><path class="cls-1" d="M0,0H0V62.23c53.11,7.71,82.93,16.81,101.44,26.64,15.38,8.17,22.21,15.23,25.36,20.19v-36.66c0-17.44-5.83-26.05-13.61-33.14C99.61,26.88,66.2,9.81,0,0"/></g></g></svg>